<?xml version="1.0" encoding="UTF-8" standalone="no"?>
<!DOCTYPE svg PUBLIC "-//W3C//DTD SVG 1.1//EN" 
"http://www.w3.org/Graphics/SVG/1.1/DTD/svg11.dtd">

<svg width="391" height="160" version="1.1"
    xmlns="http://www.w3.org/2000/svg">
    <!--
 
     Copyright (c)  2005 Lauri Kaila.
     Permission is granted to copy, distribute and/or modify this document
     under the terms of the GNU Free Documentation License, Version 1.2
     or any later version published by the Free Software Foundation;
     with no Invariant Sections, no Front-Cover Texts, and no Back-Cover Texts.
     A copy of the license is included in the section entitled "GNU
     Free Documentation License".
     
     Intented to create a keyboard where key widths are
     accurately in position. 
     
     See http://www.mathpages.com/home/kmath043.htm
     for the math.
     
     This keyboard has following properties (x=octave width).
     1. All white keys have equal width in front (W=x/7).
     2. All black keys have equal width (B=x/12).
     3. The narrow part of white keys C, D and E is W - B*2/3
     4. The narrow part of white keys F, G, A, and B is W - B*3/4
     
     =========================modified by fz=========================
     
    -->
    
    <!-- White keys  -->
    <rect style="fill:white;stroke:black" x=  "0" y="0" width="23" height="120" />
    <rect style="fill:white;stroke:black" x= "23" y="0" width="23" height="120" />
    <rect style="fill:white;stroke:black" x= "46" y="0" width="23" height="120" />
    <rect style="fill:white;stroke:black" x= "69" y="0" width="23" height="120" />
    <rect style="fill:#428bca;stroke:black" x= "92" y="0" width="23" height="120" />
    <rect style="fill:white;stroke:black" x="115" y="0" width="23" height="120" />
    <rect style="fill:#5cb85c;stroke:black" x="138" y="0" width="23" height="120" />
    <rect style="fill:white;stroke:black" x="161" y="0" width="23" height="120" />
    <rect style="fill:#5bc0de;stroke:black" x="184" y="0" width="23" height="120" />
    <rect style="fill:white;stroke:black" x="207" y="0" width="23" height="120" />
    <rect style="fill:#f0ad4e;stroke:black" x="230" y="0" width="23" height="120" />
    <rect style="fill:#d9534f;stroke:black" x="253" y="0" width="23" height="120" />
    <rect style="fill:white;stroke:black" x="276" y="0" width="23" height="120" />
    <rect style="fill:white;stroke:black" x="299" y="0" width="23" height="120" />
    <rect style="fill:white;stroke:black" x="322" y="0" width="23" height="120" />
    <rect style="fill:white;stroke:black" x="345" y="0" width="23" height="120" />
    <rect style="fill:white;stroke:black" x="368" y="0" width="23" height="120" />

    <!-- Black keys (overlap with the white keys) -->
    <rect style="fill:black;stroke:black" x="14.33333" y="0" width="13" height="80" />
    <rect style="fill:black;stroke:black" x="41.66666" y="0" width="13" height="80" />
    <rect style="fill:black;stroke:black" x="82.25" y="0" width="13" height="80" />
    <rect style="fill:black;stroke:black" x="108.25" y="0" width="13" height="80" />
    <rect style="fill:black;stroke:black" x="134.75" y="0" width="13" height="80" />
    <rect style="fill:black;stroke:black" x="175.33333" y="0" width="13" height="80" />
    <rect style="fill:black;stroke:black" x="202.66666" y="0" width="13" height="80" />
    <rect style="fill:black;stroke:black" x="243.25" y="0" width="13" height="80" />
    <rect style="fill:black;stroke:black" x="269.25" y="0" width="13" height="80" />
    <rect style="fill:black;stroke:black" x="295.75" y="0" width="13" height="80" />
    <rect style="fill:black;stroke:black" x="336.33333" y="0" width="13" height="80" />
    <rect style="fill:#743481;stroke:black" x="363.66666" y="0" width="13" height="80" />

</svg>
